<svg width="150px" height="150px" id="Layer_1" data-name="Layer 1" xmlns="http://www.w3.org/2000/svg" viewBox="0 0 336.24 169.97"><defs><style>.cls-1{fill:#231f20;}.cls-2{fill:#be202e;}.cls-2,.cls-4{stroke:#231f20;stroke-miterlimit:10;}.cls-3{fill:#ec2227;}.cls-4{fill:#fff;}</style></defs><title>crveno</title><rect class="cls-1" x="335.25" y="168.98" width="0.99" height="0.99"/><polygon class="cls-1" points="40.5 62.09 33.88 63.85 25.75 58.15 19.01 63.16 11.58 76.29 7.44 81.64 6.92 87 0 94.26 2.08 106.52 3.98 112.92 15.21 122.59 26.44 126.57 42.34 123.97 48.96 118.32 52.97 114.09 51.68 105.66 54.62 89.76 51.68 79.39 51.16 72.66 46 63.82 40.5 62.09"/><path class="cls-1" d="M268.83,272.85,261,271.76a.46.46,0,0,0-.51.4.49.49,0,0,0,0,.17l1.29,5.1a.53.53,0,0,1,0,.25l-2.83,9a.44.44,0,0,0,.29.56h0l10.54,3.43a.45.45,0,0,0,.56-.31v0l1.15-9.6a.37.37,0,0,1,.07-.2l4.22-6.33a.47.47,0,0,0-.15-.63.6.6,0,0,0-.19-.06Z" transform="translate(-232.44 -219.19)"/><polyline class="cls-1" points="59.7 128.06 53.08 122.4 49.07 118.17 50.37 109.74 47.44 93.85 50.37 83.48 50.89 76.74 56.05 67.91 61.56 66.18 68.17 67.93 76.29 62.23 83.04 67.24 90.47 80.37 94.62 85.73 95.13 91.08 102.05 98.34 99.97 110.61 98.07 117 86.84 126.68"/><path class="cls-1" d="M298.1,276.93l7.85-1.09a.47.47,0,0,1,.52.39.55.55,0,0,1,0,.18l-1.29,5.1a.36.36,0,0,0,0,.25l2.83,9a.45.45,0,0,1-.29.57l-10.55,3.47a.46.46,0,0,1-.58-.29s0-.06,0-.09l-1.13-9.63a.5.5,0,0,0-.08-.2l-4.18-6.31a.45.45,0,0,1,.15-.63.44.44,0,0,1,.19-.07Z" transform="translate(-232.44 -219.19)"/><path class="cls-2" d="M283.53,219.69A16.38,16.38,0,0,0,267.06,236c0,16.28,16.47,32.56,16.47,32.56S300,252.24,300,236A16.37,16.37,0,0,0,283.53,219.69Zm0,24.23a8,8,0,1,1,8.07-8,8,8,0,0,1-8.07,8Z" transform="translate(-232.44 -219.19)"/><path class="cls-3" d="M283.78,225.23A11.66,11.66,0,0,0,272,236.82c0,11.59,11.74,23.19,11.74,23.19s11.73-11.6,11.73-23.19a11.66,11.66,0,0,0-11.73-11.59Zm0,17.26a5.67,5.67,0,1,1,5.74-5.67,5.67,5.67,0,0,1-5.74,5.67h0Z" transform="translate(-232.44 -219.19)"/><circle class="cls-4" cx="51.09" cy="18.32" r="7.78"/></svg>