<svg width="150px" height="150px" id="Layer_1" data-name="Layer 1" xmlns="http://www.w3.org/2000/svg" viewBox="0 0 336.24 169.97"><defs><style>.cls-1{fill:#231f20;}.cls-2{fill:#019547;}.cls-2,.cls-4{stroke:#231f20;stroke-miterlimit:10;}.cls-3{fill:#8fc640;}.cls-4{fill:#fff;}</style></defs><title>zeleno</title><rect class="cls-1" x="335.25" y="168.98" width="0.99" height="0.99"/><path class="cls-2" d="M282.48,219.69A16.35,16.35,0,0,0,266,235.9v0c0,16.22,16.47,32.46,16.47,32.46s16.48-16.24,16.48-32.46A16.35,16.35,0,0,0,282.48,219.69Zm0,24.16a7.94,7.94,0,1,1,8.06-7.93,8,8,0,0,1-8.06,7.93h0Z" transform="translate(-232.44 -219.19)"/><path class="cls-3" d="M282.73,225.22A11.64,11.64,0,0,0,271,236.78c0,11.56,11.73,23.11,11.73,23.11s11.74-11.55,11.74-23.11a11.66,11.66,0,0,0-11.74-11.56Zm0,17.21a5.66,5.66,0,1,1,5.74-5.65,5.67,5.67,0,0,1-5.74,5.65h0Z" transform="translate(-232.44 -219.19)"/><ellipse class="cls-4" cx="50.04" cy="18.28" rx="7.78" ry="7.75"/><polygon class="cls-1" points="40.5 62.29 33.88 64.04 25.75 58.36 19.01 63.35 11.58 76.44 7.43 81.78 6.92 87.12 0 94.35 2.08 106.59 3.98 112.96 15.21 122.61 26.45 126.57 42.34 123.99 48.96 118.34 52.97 114.13 51.68 105.72 54.62 89.88 51.68 79.54 51.16 72.82 46 64.01 40.5 62.29"/><path class="cls-1" d="M268.83,273.07,261,272a.45.45,0,0,0-.51.39.37.37,0,0,0,0,.18l1.29,5.09a.49.49,0,0,1,0,.24l-2.83,9a.44.44,0,0,0,.29.57l10.55,3.43a.45.45,0,0,0,.57-.29.29.29,0,0,0,0-.09l1.16-9.55a.36.36,0,0,1,.08-.2l4.22-6.31a.46.46,0,0,0-.16-.63.55.55,0,0,0-.18-.06Z" transform="translate(-232.44 -219.19)"/><polyline class="cls-1" points="59.7 128.06 53.08 122.42 49.07 118.2 50.37 109.8 47.44 93.95 50.37 83.61 50.89 76.9 56.05 68.09 61.56 66.36 68.17 68.11 76.29 62.42 83.04 67.42 90.47 80.51 94.62 85.85 95.14 91.19 102.05 98.43 99.97 110.66 98.07 117.04 86.84 126.68"/><path class="cls-1" d="M298.1,277.14l7.85-1.09a.48.48,0,0,1,.52.4.86.86,0,0,1,0,.16l-1.29,5.09a.36.36,0,0,0,0,.25l2.83,9a.46.46,0,0,1-.29.58L297.16,295a.47.47,0,0,1-.58-.3l0-.08L295.42,285a.39.39,0,0,0-.08-.2l-4.22-6.3a.46.46,0,0,1,.16-.63.3.3,0,0,1,.18-.06Z" transform="translate(-232.44 -219.19)"/></svg>