<svg width="150px" height="150px" id="Layer_1" data-name="Layer 1" xmlns="http://www.w3.org/2000/svg" viewBox="0 0 336.24 169.97"><defs>
  <style>.cls-1{fill:#231f20;}.cls-2{fill:#f89521;}.cls-2,.cls-4{stroke:#231f20;stroke-miterlimit:10;}.cls-3{fill:#fcee23;}.cls-4{fill:#fff;}
  </style>
</defs><title>zto</title><rect class="cls-1" x="335.25" y="168.98" width="0.99" height="0.99"/><polygon class="cls-1" points="40.49 61.92 33.88 63.67 25.76 57.95 19.01 62.98 11.58 76.15 7.43 81.52 6.91 86.89 0 94.16 2.08 106.47 3.98 112.88 15.21 122.58 26.44 126.56 42.35 123.96 48.97 118.29 52.98 114.06 51.68 105.6 54.61 89.66 51.68 79.27 51.16 72.51 46 63.65 40.49 61.92"/><path class="cls-1" d="M268.83,272.65l-7.84-1.1a.45.45,0,0,0-.52.38.41.41,0,0,0,0,.19l1.29,5.12a.53.53,0,0,1,0,.25l-2.84,9a.48.48,0,0,0,.3.58l10.55,3.44a.46.46,0,0,0,.58-.3s0-.05,0-.08l1.15-9.64a.48.48,0,0,1,.07-.2l4.22-6.34a.45.45,0,0,0-.15-.63.4.4,0,0,0-.19-.07Z" transform="translate(-232.44 -219.19)"/><polyline class="cls-1" points="59.71 128.06 53.08 122.39 49.08 118.15 50.38 109.7 47.43 93.75 50.38 83.36 50.89 76.6 56.05 67.75 61.55 66.01 68.17 67.77 76.3 62.05 83.03 67.07 90.47 80.24 94.62 85.62 95.14 90.99 102.05 98.26 99.98 110.57 98.07 116.97 86.84 126.67"/><path class="cls-1" d="M298.11,276.74l7.84-1.1a.47.47,0,0,1,.52.4.32.32,0,0,1,0,.17l-1.29,5.12a.53.53,0,0,0,0,.25l2.83,9.05a.45.45,0,0,1-.3.57l-10.54,3.45a.47.47,0,0,1-.58-.31.31.31,0,0,1,0-.08l-1.14-9.63a.48.48,0,0,0-.07-.2l-4.22-6.35a.46.46,0,0,1,.15-.63.55.55,0,0,1,.18-.06Z" transform="translate(-232.44 -219.19)"/><path class="cls-2" d="M284.55,219.69A16.4,16.4,0,0,0,268.08,236c0,16.33,16.47,32.65,16.47,32.65S301,252.33,301,236A16.39,16.39,0,0,0,284.55,219.69Zm0,24.3a8,8,0,1,1,8.06-8,8,8,0,0,1-8.06,8Z" transform="translate(-232.44 -219.19)"/><path class="cls-3" d="M284.8,225.24a11.69,11.69,0,0,0-11.73,11.63c0,11.62,11.73,23.25,11.73,23.25s11.73-11.63,11.73-23.25a11.68,11.68,0,0,0-11.72-11.63Zm0,17.31a5.69,5.69,0,1,1,5.75-5.68,5.67,5.67,0,0,1-5.75,5.68Z" transform="translate(-232.44 -219.19)"/><ellipse class="cls-4" cx="52.11" cy="18.37" rx="7.78" ry="7.8"/></svg>