<svg id="Layer_1" data-name="Layer 1" xmlns="http://www.w3.org/2000/svg" viewBox="0 0 503.66 252.5"><defs><style>.cls-1{fill:#231f20;}.cls-2{fill:#009444;}.cls-2,.cls-4,.cls-5,.cls-7{stroke:#231f20;stroke-miterlimit:10;}.cls-3{fill:#8dc63f;}.cls-4{fill:#fff;}.cls-5{fill:#f7941d;}.cls-6{fill:#fff200;}.cls-7{fill:#be1e2d;}.cls-8{fill:#ed1c24;}</style></defs><title>Pins</title><rect class="cls-1" x="42.73" y="251.08" width="1.42" height="1.42"/><polygon class="cls-1" points="414.95 89.39 405.41 91.92 393.7 83.7 383.98 90.92 373.27 109.85 367.3 117.57 366.55 125.29 356.58 135.76 359.57 153.44 362.31 162.66 378.5 176.61 394.69 182.34 417.61 178.6 427.15 170.45 432.93 164.35 431.06 152.2 435.3 129.28 431.06 114.33 430.31 104.62 422.88 91.88 414.95 89.39"/><path class="cls-1" d="M465.81,372.75l-11.31-1.57a.67.67,0,0,0-.73.82l1.86,7.36a.63.63,0,0,1,0,.36l-4.08,13a.65.65,0,0,0,.43.82l15.19,4.95A.66.66,0,0,0,468,398l1.65-13.84a.61.61,0,0,1,.11-.29l6.08-9.12a.66.66,0,0,0-.49-1Z" transform="translate(-56.78 -295.52)"/><polyline class="cls-1" points="442.63 184.49 433.09 176.33 427.31 170.24 429.18 158.08 424.95 135.17 429.18 120.22 429.93 110.51 437.36 97.77 445.3 95.28 454.84 97.8 466.54 89.58 476.26 96.81 486.97 115.74 492.95 123.46 493.69 131.18 503.66 141.64 500.67 159.33 497.93 168.54 481.74 182.5"/><path class="cls-1" d="M508,378.64l11.31-1.57a.66.66,0,0,1,.73.82l-1.86,7.35a.63.63,0,0,0,0,.36l4.08,13a.66.66,0,0,1-.42.83l-15.2,5a.66.66,0,0,1-.86-.55L504.14,390a.57.57,0,0,0-.11-.29L498,380.61a.66.66,0,0,1,.49-1Z" transform="translate(-56.78 -295.52)"/><polygon class="cls-1" points="58.36 89.43 48.82 91.95 37.12 83.73 27.4 90.95 16.69 109.89 10.71 117.61 9.96 125.33 0 135.79 2.99 153.48 5.73 162.69 21.92 176.64 38.11 182.37 61.03 178.63 70.57 170.48 76.35 164.39 74.48 152.23 78.71 129.31 74.48 114.37 73.73 104.66 66.3 91.92 58.36 89.43"/><path class="cls-1" d="M109.23,372.79l-11.31-1.57a.65.65,0,0,0-.73.81l1.86,7.36a.73.73,0,0,1,0,.36l-4.09,13a.68.68,0,0,0,.43.83l15.2,4.95a.66.66,0,0,0,.86-.55l1.65-13.85a.63.63,0,0,1,.1-.29l6.09-9.12a.66.66,0,0,0-.49-1Z" transform="translate(-56.78 -295.52)"/><polyline class="cls-1" points="86.05 184.52 76.5 176.37 70.73 170.27 72.6 158.12 68.36 135.2 72.6 120.26 73.34 110.54 80.78 97.81 88.71 95.31 98.25 97.84 109.96 89.62 119.67 96.84 130.38 115.77 136.36 123.5 137.11 131.22 147.07 141.68 144.09 159.37 141.34 168.58 125.15 182.53"/><path class="cls-1" d="M151.42,378.68l11.3-1.58a.67.67,0,0,1,.74.82l-1.86,7.36a.63.63,0,0,0,0,.36l4.08,13a.67.67,0,0,1-.43.83l-15.2,4.95a.67.67,0,0,1-.86-.56l-1.64-13.84a.79.79,0,0,0-.11-.29l-6.08-9.12a.66.66,0,0,1,.48-1Z" transform="translate(-56.78 -295.52)"/><path class="cls-2" d="M303.78,296A23.61,23.61,0,0,0,280,319.49c0,23.46,23.74,46.93,23.74,46.93s23.75-23.47,23.75-46.93A23.61,23.61,0,0,0,303.78,296Zm0,34.94a11.48,11.48,0,1,1,11.62-11.47A11.55,11.55,0,0,1,303.78,331Z" transform="translate(-56.78 -295.52)"/><path class="cls-3" d="M304.14,304a16.82,16.82,0,0,0-16.91,16.72c0,16.71,16.91,33.42,16.91,33.42s16.92-16.71,16.92-33.42A16.82,16.82,0,0,0,304.14,304Zm0,24.89a8.18,8.18,0,1,1,8.28-8.17A8.22,8.22,0,0,1,304.14,328.9Z" transform="translate(-56.78 -295.52)"/><circle class="cls-4" cx="247" cy="26.19" r="11.21"/><path class="cls-5" d="M131.88,296.65a23.61,23.61,0,0,0-23.74,23.46c0,23.47,23.74,46.94,23.74,46.94s23.75-23.47,23.75-46.94A23.61,23.61,0,0,0,131.88,296.65Zm0,34.94a11.48,11.48,0,1,1,11.62-11.48A11.55,11.55,0,0,1,131.88,331.59Z" transform="translate(-56.78 -295.52)"/><path class="cls-6" d="M132.24,304.64a16.82,16.82,0,0,0-16.91,16.72c0,16.7,16.91,33.42,16.91,33.42s16.91-16.72,16.91-33.42A16.81,16.81,0,0,0,132.24,304.64Zm0,24.88a8.17,8.17,0,1,1,8.28-8.16A8.22,8.22,0,0,1,132.24,329.52Z" transform="translate(-56.78 -295.52)"/><circle class="cls-4" cx="75.1" cy="26.82" r="11.21"/><path class="cls-7" d="M487,296.11a23.61,23.61,0,0,0-23.74,23.46c0,23.47,23.74,46.94,23.74,46.94s23.75-23.47,23.75-46.94A23.61,23.61,0,0,0,487,296.11Zm0,34.94a11.48,11.48,0,1,1,11.62-11.48A11.55,11.55,0,0,1,487,331.05Z" transform="translate(-56.78 -295.52)"/><path class="cls-8" d="M487.35,304.1a16.82,16.82,0,0,0-16.91,16.72c0,16.7,16.91,33.42,16.91,33.42s16.91-16.72,16.91-33.42A16.81,16.81,0,0,0,487.35,304.1Zm0,24.88a8.17,8.17,0,1,1,8.28-8.16A8.22,8.22,0,0,1,487.35,329Z" transform="translate(-56.78 -295.52)"/><circle class="cls-4" cx="430.21" cy="26.28" r="11.21"/><polygon class="cls-1" points="233.25 89.83 223.71 92.36 212 84.14 202.28 91.36 191.57 110.29 185.59 118.01 184.85 125.73 174.88 136.19 177.87 153.88 180.61 163.1 196.8 177.05 213 182.78 235.91 179.04 245.45 170.88 251.23 164.79 249.36 152.63 253.6 129.72 249.36 114.77 248.62 105.06 241.18 92.32 233.25 89.83"/><path class="cls-1" d="M284.11,373.19l-11.31-1.57a.66.66,0,0,0-.73.82l1.86,7.36a.6.6,0,0,1,0,.35l-4.08,13a.66.66,0,0,0,.42.83l15.2,4.95a.66.66,0,0,0,.86-.55L288,384.57a.57.57,0,0,1,.11-.29l6.08-9.12a.66.66,0,0,0-.49-1Z" transform="translate(-56.78 -295.52)"/><polyline class="cls-1" points="260.93 184.93 251.39 176.77 245.61 170.68 247.48 158.52 243.25 135.61 247.48 120.66 248.23 110.95 255.66 98.21 263.6 95.72 273.14 98.24 284.84 90.02 294.56 97.25 305.27 116.18 311.25 123.9 312 131.62 321.96 142.08 318.97 159.77 316.23 168.99 300.04 182.93"/><path class="cls-1" d="M326.3,379.08l11.31-1.57a.66.66,0,0,1,.73.81l-1.86,7.36a.63.63,0,0,0,0,.36l4.08,13a.66.66,0,0,1-.42.83l-15.2,5a.66.66,0,0,1-.86-.55l-1.65-13.85a.57.57,0,0,0-.11-.28l-6.08-9.12a.66.66,0,0,1,.49-1Z" transform="translate(-56.78 -295.52)"/></svg>